<mxfile host="Electron" agent="Mozilla/5.0 (Windows NT 10.0; Win64; x64) AppleWebKit/537.36 (KHTML, like Gecko) draw.io/28.0.4 Chrome/138.0.7204.97 Electron/37.2.1 Safari/537.36" version="28.0.4">
  <diagram name="Page-1" id="FfV_91YqReT0SJXEiEvv">
    <mxGraphModel dx="1314" dy="840" grid="1" gridSize="10" guides="1" tooltips="1" connect="1" arrows="1" fold="1" page="1" pageScale="1" pageWidth="850" pageHeight="1100" math="0" shadow="0">
      <root>
        <mxCell id="0" />
        <mxCell id="1" parent="0" />
        <mxCell id="F6nNHqT2w3mHL8go4sm1-38" value="" style="rounded=1;whiteSpace=wrap;html=1;fillColor=none;strokeColor=#d6b656;" vertex="1" parent="1">
          <mxGeometry x="390" y="220" width="480" height="460" as="geometry" />
        </mxCell>
        <mxCell id="F6nNHqT2w3mHL8go4sm1-36" value="" style="rounded=1;whiteSpace=wrap;html=1;fillColor=none;strokeColor=#6c8ebf;" vertex="1" parent="1">
          <mxGeometry x="-120" y="210" width="480" height="460" as="geometry" />
        </mxCell>
        <mxCell id="F6nNHqT2w3mHL8go4sm1-1" value="crm_cust_info" style="swimlane;fontStyle=0;childLayout=stackLayout;horizontal=1;startSize=30;horizontalStack=0;resizeParent=1;resizeParentMax=0;resizeLast=0;collapsible=1;marginBottom=0;whiteSpace=wrap;html=1;fillColor=#dae8fc;strokeColor=#6c8ebf;swimlaneFillColor=none;rounded=1;fontSize=16;" vertex="1" parent="1">
          <mxGeometry x="150" y="540" width="165" height="110" as="geometry" />
        </mxCell>
        <mxCell id="F6nNHqT2w3mHL8go4sm1-2" value="&lt;font style=&quot;font-size: 14px;&quot;&gt;cst_id&lt;/font&gt;" style="text;strokeColor=none;fillColor=none;align=left;verticalAlign=middle;spacingLeft=4;spacingRight=4;overflow=hidden;points=[[0,0.5],[1,0.5]];portConstraint=eastwest;rotatable=0;whiteSpace=wrap;html=1;" vertex="1" parent="F6nNHqT2w3mHL8go4sm1-1">
          <mxGeometry y="30" width="165" height="30" as="geometry" />
        </mxCell>
        <mxCell id="F6nNHqT2w3mHL8go4sm1-24" value="&lt;font style=&quot;font-size: 14px;&quot;&gt;cst_key&lt;/font&gt;" style="text;strokeColor=none;fillColor=none;align=left;verticalAlign=middle;spacingLeft=4;spacingRight=4;overflow=hidden;points=[[0,0.5],[1,0.5]];portConstraint=eastwest;rotatable=0;whiteSpace=wrap;html=1;" vertex="1" parent="F6nNHqT2w3mHL8go4sm1-1">
          <mxGeometry y="60" width="165" height="30" as="geometry" />
        </mxCell>
        <mxCell id="F6nNHqT2w3mHL8go4sm1-42" value="CUSTOMER" style="text;html=1;strokeColor=#82b366;fillColor=#d5e8d4;align=center;verticalAlign=middle;whiteSpace=wrap;overflow=hidden;fontStyle=1" vertex="1" parent="F6nNHqT2w3mHL8go4sm1-1">
          <mxGeometry y="90" width="165" height="20" as="geometry" />
        </mxCell>
        <mxCell id="F6nNHqT2w3mHL8go4sm1-5" value="Customer Information" style="text;html=1;align=center;verticalAlign=middle;whiteSpace=wrap;rounded=0;" vertex="1" parent="1">
          <mxGeometry x="167" y="510" width="137" height="30" as="geometry" />
        </mxCell>
        <mxCell id="F6nNHqT2w3mHL8go4sm1-6" value="crm_prd_info" style="swimlane;fontStyle=0;childLayout=stackLayout;horizontal=1;startSize=30;horizontalStack=0;resizeParent=1;resizeParentMax=0;resizeLast=0;collapsible=1;marginBottom=0;whiteSpace=wrap;html=1;fillColor=#dae8fc;strokeColor=#6c8ebf;swimlaneFillColor=none;rounded=1;fontSize=16;" vertex="1" parent="1">
          <mxGeometry x="150" y="276" width="165" height="80" as="geometry" />
        </mxCell>
        <mxCell id="F6nNHqT2w3mHL8go4sm1-7" value="&lt;font style=&quot;font-size: 14px;&quot;&gt;prd_key&lt;/font&gt;" style="text;strokeColor=none;fillColor=none;align=left;verticalAlign=middle;spacingLeft=4;spacingRight=4;overflow=hidden;points=[[0,0.5],[1,0.5]];portConstraint=eastwest;rotatable=0;whiteSpace=wrap;html=1;" vertex="1" parent="F6nNHqT2w3mHL8go4sm1-6">
          <mxGeometry y="30" width="165" height="30" as="geometry" />
        </mxCell>
        <mxCell id="F6nNHqT2w3mHL8go4sm1-40" value="PRDODUCT" style="text;html=1;strokeColor=#b85450;fillColor=#f8cecc;align=center;verticalAlign=middle;whiteSpace=wrap;overflow=hidden;fontStyle=1" vertex="1" parent="F6nNHqT2w3mHL8go4sm1-6">
          <mxGeometry y="60" width="165" height="20" as="geometry" />
        </mxCell>
        <mxCell id="F6nNHqT2w3mHL8go4sm1-8" value="Current and History Product Information" style="text;html=1;align=center;verticalAlign=middle;whiteSpace=wrap;rounded=0;" vertex="1" parent="1">
          <mxGeometry x="119.5" y="246" width="226" height="30" as="geometry" />
        </mxCell>
        <mxCell id="F6nNHqT2w3mHL8go4sm1-13" value="crm_sales_details" style="swimlane;fontStyle=0;childLayout=stackLayout;horizontal=1;startSize=30;horizontalStack=0;resizeParent=1;resizeParentMax=0;resizeLast=0;collapsible=1;marginBottom=0;whiteSpace=wrap;html=1;fillColor=#dae8fc;strokeColor=#6c8ebf;swimlaneFillColor=none;rounded=1;fontSize=16;" vertex="1" parent="1">
          <mxGeometry x="-102.5" y="361" width="165" height="110" as="geometry" />
        </mxCell>
        <mxCell id="F6nNHqT2w3mHL8go4sm1-14" value="&lt;font style=&quot;font-size: 14px;&quot;&gt;prd_key&lt;/font&gt;" style="text;strokeColor=none;fillColor=none;align=left;verticalAlign=middle;spacingLeft=4;spacingRight=4;overflow=hidden;points=[[0,0.5],[1,0.5]];portConstraint=eastwest;rotatable=0;whiteSpace=wrap;html=1;" vertex="1" parent="F6nNHqT2w3mHL8go4sm1-13">
          <mxGeometry y="30" width="165" height="30" as="geometry" />
        </mxCell>
        <mxCell id="F6nNHqT2w3mHL8go4sm1-16" value="&lt;font style=&quot;font-size: 14px;&quot;&gt;cst_id&lt;/font&gt;" style="text;strokeColor=none;fillColor=none;align=left;verticalAlign=middle;spacingLeft=4;spacingRight=4;overflow=hidden;points=[[0,0.5],[1,0.5]];portConstraint=eastwest;rotatable=0;whiteSpace=wrap;html=1;" vertex="1" parent="F6nNHqT2w3mHL8go4sm1-13">
          <mxGeometry y="60" width="165" height="30" as="geometry" />
        </mxCell>
        <mxCell id="F6nNHqT2w3mHL8go4sm1-48" value="SALES" style="text;html=1;strokeColor=#9673a6;fillColor=#e1d5e7;align=center;verticalAlign=middle;whiteSpace=wrap;overflow=hidden;fontStyle=1" vertex="1" parent="F6nNHqT2w3mHL8go4sm1-13">
          <mxGeometry y="90" width="165" height="20" as="geometry" />
        </mxCell>
        <mxCell id="F6nNHqT2w3mHL8go4sm1-15" value="Transacional Records about Sales and&amp;nbsp; orders&amp;nbsp;" style="text;html=1;align=center;verticalAlign=middle;whiteSpace=wrap;rounded=0;" vertex="1" parent="1">
          <mxGeometry x="-110" y="331" width="180" height="30" as="geometry" />
        </mxCell>
        <mxCell id="F6nNHqT2w3mHL8go4sm1-18" style="edgeStyle=orthogonalEdgeStyle;rounded=0;orthogonalLoop=1;jettySize=auto;html=1;entryX=0;entryY=0.5;entryDx=0;entryDy=0;" edge="1" parent="1" source="F6nNHqT2w3mHL8go4sm1-14" target="F6nNHqT2w3mHL8go4sm1-7">
          <mxGeometry relative="1" as="geometry" />
        </mxCell>
        <mxCell id="F6nNHqT2w3mHL8go4sm1-20" style="edgeStyle=orthogonalEdgeStyle;rounded=0;orthogonalLoop=1;jettySize=auto;html=1;exitX=1;exitY=0.5;exitDx=0;exitDy=0;entryX=0;entryY=0.5;entryDx=0;entryDy=0;" edge="1" parent="1" source="F6nNHqT2w3mHL8go4sm1-16" target="F6nNHqT2w3mHL8go4sm1-2">
          <mxGeometry relative="1" as="geometry" />
        </mxCell>
        <mxCell id="F6nNHqT2w3mHL8go4sm1-21" value="erp_cust_az12" style="swimlane;fontStyle=0;childLayout=stackLayout;horizontal=1;startSize=30;horizontalStack=0;resizeParent=1;resizeParentMax=0;resizeLast=0;collapsible=1;marginBottom=0;whiteSpace=wrap;html=1;fillColor=#fff2cc;strokeColor=#d6b656;swimlaneFillColor=none;rounded=1;fontSize=16;" vertex="1" parent="1">
          <mxGeometry x="540.5" y="410" width="165" height="80" as="geometry" />
        </mxCell>
        <mxCell id="F6nNHqT2w3mHL8go4sm1-22" value="&lt;font style=&quot;font-size: 14px;&quot;&gt;cid&lt;/font&gt;" style="text;strokeColor=none;fillColor=none;align=left;verticalAlign=middle;spacingLeft=4;spacingRight=4;overflow=hidden;points=[[0,0.5],[1,0.5]];portConstraint=eastwest;rotatable=0;whiteSpace=wrap;html=1;" vertex="1" parent="F6nNHqT2w3mHL8go4sm1-21">
          <mxGeometry y="30" width="165" height="30" as="geometry" />
        </mxCell>
        <mxCell id="F6nNHqT2w3mHL8go4sm1-43" value="CUSTOMER" style="text;html=1;strokeColor=#82b366;fillColor=#d5e8d4;align=center;verticalAlign=middle;whiteSpace=wrap;overflow=hidden;fontStyle=1" vertex="1" parent="F6nNHqT2w3mHL8go4sm1-21">
          <mxGeometry y="60" width="165" height="20" as="geometry" />
        </mxCell>
        <mxCell id="F6nNHqT2w3mHL8go4sm1-23" value="Extra Customer Information (Birthdate)" style="text;html=1;align=center;verticalAlign=middle;whiteSpace=wrap;rounded=0;" vertex="1" parent="1">
          <mxGeometry x="510" y="380" width="226" height="30" as="geometry" />
        </mxCell>
        <mxCell id="F6nNHqT2w3mHL8go4sm1-25" style="edgeStyle=orthogonalEdgeStyle;rounded=0;orthogonalLoop=1;jettySize=auto;html=1;entryX=1;entryY=0.5;entryDx=0;entryDy=0;" edge="1" parent="1" source="F6nNHqT2w3mHL8go4sm1-22" target="F6nNHqT2w3mHL8go4sm1-24">
          <mxGeometry relative="1" as="geometry" />
        </mxCell>
        <mxCell id="F6nNHqT2w3mHL8go4sm1-26" value="erp_loc_a101" style="swimlane;fontStyle=0;childLayout=stackLayout;horizontal=1;startSize=30;horizontalStack=0;resizeParent=1;resizeParentMax=0;resizeLast=0;collapsible=1;marginBottom=0;whiteSpace=wrap;html=1;fillColor=#fff2cc;strokeColor=#d6b656;swimlaneFillColor=none;rounded=1;fontSize=16;" vertex="1" parent="1">
          <mxGeometry x="540.5" y="570" width="165" height="80" as="geometry" />
        </mxCell>
        <mxCell id="F6nNHqT2w3mHL8go4sm1-27" value="&lt;font style=&quot;font-size: 14px;&quot;&gt;cid&lt;/font&gt;" style="text;strokeColor=none;fillColor=none;align=left;verticalAlign=middle;spacingLeft=4;spacingRight=4;overflow=hidden;points=[[0,0.5],[1,0.5]];portConstraint=eastwest;rotatable=0;whiteSpace=wrap;html=1;" vertex="1" parent="F6nNHqT2w3mHL8go4sm1-26">
          <mxGeometry y="30" width="165" height="30" as="geometry" />
        </mxCell>
        <mxCell id="F6nNHqT2w3mHL8go4sm1-47" value="CUSTOMER" style="text;html=1;strokeColor=#82b366;fillColor=#d5e8d4;align=center;verticalAlign=middle;whiteSpace=wrap;overflow=hidden;fontStyle=1" vertex="1" parent="F6nNHqT2w3mHL8go4sm1-26">
          <mxGeometry y="60" width="165" height="20" as="geometry" />
        </mxCell>
        <mxCell id="F6nNHqT2w3mHL8go4sm1-28" value="Location of&amp;nbsp; Customers (Country)" style="text;html=1;align=center;verticalAlign=middle;whiteSpace=wrap;rounded=0;" vertex="1" parent="1">
          <mxGeometry x="510" y="540" width="226" height="30" as="geometry" />
        </mxCell>
        <mxCell id="F6nNHqT2w3mHL8go4sm1-29" style="edgeStyle=orthogonalEdgeStyle;rounded=0;orthogonalLoop=1;jettySize=auto;html=1;exitX=0;exitY=0.5;exitDx=0;exitDy=0;entryX=1;entryY=0.5;entryDx=0;entryDy=0;" edge="1" parent="1" source="F6nNHqT2w3mHL8go4sm1-27" target="F6nNHqT2w3mHL8go4sm1-24">
          <mxGeometry relative="1" as="geometry" />
        </mxCell>
        <mxCell id="F6nNHqT2w3mHL8go4sm1-30" value="erp_px_cat_g1v2" style="swimlane;fontStyle=0;childLayout=stackLayout;horizontal=1;startSize=30;horizontalStack=0;resizeParent=1;resizeParentMax=0;resizeLast=0;collapsible=1;marginBottom=0;whiteSpace=wrap;html=1;fillColor=#fff2cc;strokeColor=#d6b656;swimlaneFillColor=none;rounded=1;fontSize=16;" vertex="1" parent="1">
          <mxGeometry x="530.5" y="276" width="165" height="80" as="geometry" />
        </mxCell>
        <mxCell id="F6nNHqT2w3mHL8go4sm1-31" value="&lt;font style=&quot;font-size: 14px;&quot;&gt;id&lt;/font&gt;" style="text;strokeColor=none;fillColor=none;align=left;verticalAlign=middle;spacingLeft=4;spacingRight=4;overflow=hidden;points=[[0,0.5],[1,0.5]];portConstraint=eastwest;rotatable=0;whiteSpace=wrap;html=1;" vertex="1" parent="F6nNHqT2w3mHL8go4sm1-30">
          <mxGeometry y="30" width="165" height="30" as="geometry" />
        </mxCell>
        <mxCell id="F6nNHqT2w3mHL8go4sm1-41" value="PRDODUCT" style="text;html=1;strokeColor=#b85450;fillColor=#f8cecc;align=center;verticalAlign=middle;whiteSpace=wrap;overflow=hidden;fontStyle=1" vertex="1" parent="F6nNHqT2w3mHL8go4sm1-30">
          <mxGeometry y="60" width="165" height="20" as="geometry" />
        </mxCell>
        <mxCell id="F6nNHqT2w3mHL8go4sm1-32" value="Product Categories" style="text;html=1;align=center;verticalAlign=middle;whiteSpace=wrap;rounded=0;" vertex="1" parent="1">
          <mxGeometry x="500" y="246" width="226" height="30" as="geometry" />
        </mxCell>
        <mxCell id="F6nNHqT2w3mHL8go4sm1-33" style="edgeStyle=orthogonalEdgeStyle;rounded=0;orthogonalLoop=1;jettySize=auto;html=1;entryX=1;entryY=0.5;entryDx=0;entryDy=0;" edge="1" parent="1" source="F6nNHqT2w3mHL8go4sm1-31" target="F6nNHqT2w3mHL8go4sm1-7">
          <mxGeometry relative="1" as="geometry" />
        </mxCell>
        <mxCell id="F6nNHqT2w3mHL8go4sm1-34" value="&lt;h1 style=&quot;margin-top: 0px;&quot;&gt;Integration Model&lt;/h1&gt;&lt;p&gt;How the tables related&lt;/p&gt;" style="text;html=1;whiteSpace=wrap;overflow=hidden;rounded=0;" vertex="1" parent="1">
          <mxGeometry y="50" width="240" height="120" as="geometry" />
        </mxCell>
        <mxCell id="F6nNHqT2w3mHL8go4sm1-37" value="&lt;b&gt;&lt;font style=&quot;font-size: 17px;&quot;&gt;CRM&lt;/font&gt;&lt;/b&gt;" style="rounded=1;whiteSpace=wrap;html=1;fillColor=#dae8fc;strokeColor=#6c8ebf;" vertex="1" parent="1">
          <mxGeometry x="62.5" y="190" width="146.67" height="40" as="geometry" />
        </mxCell>
        <mxCell id="F6nNHqT2w3mHL8go4sm1-39" value="&lt;b&gt;&lt;font style=&quot;font-size: 17px;&quot;&gt;CRM&lt;/font&gt;&lt;/b&gt;" style="rounded=1;whiteSpace=wrap;html=1;fillColor=#fff2cc;strokeColor=#d6b656;" vertex="1" parent="1">
          <mxGeometry x="572.5" y="200" width="146.67" height="40" as="geometry" />
        </mxCell>
      </root>
    </mxGraphModel>
  </diagram>
</mxfile>
